PathFileType	4	(X/Y/Z)	c:\Git\powerlifing_model_clean\simulations\HC835B\Session1\HC835B_OGR_0003\marker_experimental.trc
DataRate	CameraRate	NumFrames	NumMarkers	Units	OrigDataRate	OrigDataStartFrame	OrigNumFrames
240.000000	240.000000	5	38	mm	240.000000	0	215
Frame#	Time	RPSI			LPSI			RASI			LASI			RTH1			RTH2			RTH3			RTH4			RSK1			RSK2			RSK3			RSK4			RCAL1			RCAL2			RCAL3			RST			RPT			RTN			RFMB			RSMB			RVMB			RFMH			RSMH			RVMH			RPM			LTH1			LTH2			LTH3			LTH4			LSK1			LSK2			LSK3			LSK4			LCAL1			LCAL2			LCAL3			LFMH			LVMH			
		X1	Y1	Z1	X2	Y2	Z2	X3	Y3	Z3	X4	Y4	Z4	X5	Y5	Z5	X6	Y6	Z6	X7	Y7	Z7	X8	Y8	Z8	X9	Y9	Z9	X10	Y10	Z10	X11	Y11	Z11	X12	Y12	Z12	X13	Y13	Z13	X14	Y14	Z14	X15	Y15	Z15	X16	Y16	Z16	X17	Y17	Z17	X18	Y18	Z18	X19	Y19	Z19	X20	Y20	Z20	X21	Y21	Z21	X22	Y22	Z22	X23	Y23	Z23	X24	Y24	Z24	X25	Y25	Z25	X26	Y26	Z26	X27	Y27	Z27	X28	Y28	Z28	X29	Y29	Z29	X30	Y30	Z30	X31	Y31	Z31	X32	Y32	Z32	X33	Y33	Z33	X34	Y34	Z34	X35	Y35	Z35	X36	Y36	Z36	X37	Y37	Z37	X38	Y38	Z38	

1	0	482.2163696289064	1223.213745117188	286.6335754394532	368.9283142089844	1222.998779296875	276.2617187500001	552.3917846679689	1147.525268554688	102.5475082397461	326.9916992187501	1126.59326171875	88.15477752685548	620.1435546875001	864.293151855469	118.0898361206055	601.2208251953126	870.2022705078127	59.99303817749025	606.5065307617189	793.169860839844	73.91609954833986	577.7236938476564	797.2549438476565	22.8024959564209	546.7858276367189	348.2348632812501	60.53010177612306	553.5031127929689	343.7428283691407	-0.7626134753227236	540.4818115234376	295.6348571777344	35.13298797607423	534.7608032226564	292.9887695312501	-24.50777626037598	467.0087280273439	138.4543151855469	57.6376075744629	427.3957519531251	113.4587783813477	38.26713180541993	488.1266174316407	95.37247467041017	47.70335006713868	429.6740112304689	144.158447265625	-27.27524948120118	522.6903686523439	109.4861755371094	-4.933470726013184	453.9386596679689	166.9912414550782	-74.90702056884767	457.579559326172	153.65576171875	-108.6831893920899	510.8931274414064	164.9410247802735	-109.2818908691407	531.6641235351564	89.08525848388673	-52.6545867919922	453.2499389648439	133.7641754150391	-167.600326538086	511.4698791503907	137.1717071533203	-173.0200653076172	556.8731689453126	88.00735473632814	-129.0265350341797	508.0084838867189	145.0821533203125	-227.9013061523438	258.9564514160157	873.3361816406252	286.5938720703126	272.3685607910157	838.8044433593752	238.2774200439454	271.5479125976563	790.449890136719	303.4052124023438	297.6711120605469	758.6387329101564	259.0981750488282	310.2417907714844	523.0985107421876	667.5380249023439	303.9422302246094	472.7817382812501	650.1909179687501	311.3273010253907	477.5462646484376	698.9339599609376	322.1087951660157	425.1602172851564	677.7097167968751	377.5220336914063	448.1418457031251	823.4123535156252	357.3793640136719	436.2391967773439	865.3938598632815	414.6575012207032	436.6477355957032	851.406433105469	425.0696411132814	225.7850799560547	786.9731445312502	326.5848693847657	246.0918121337891	847.8389892578127	
2	0.004166666666666667	482.4834899902345	1221.497680664063	272.6395263671876	369.1978149414063	1221.708618164063	262.3292236328126	552.3494873046876	1145.5361328125	88.34792327880861	326.4453125000001	1126.323120117188	73.93419647216798	620.5410766601564	861.6372680664065	106.7968063354492	601.3395996093751	866.9353027343752	48.73423767089845	606.5545654296876	790.0054931640627	63.448299407959	577.5107421875001	793.5874023437502	12.44533443450928	546.7788085937501	345.2362060546876	43.95677947998048	553.1530761718751	341.7612915039063	-17.41418647766114	540.4948730468751	293.0979614257813	17.73047828674317	534.3248291015626	291.4201049804688	-41.94518661499024	467.3019409179689	135.2086486816407	37.77416610717774	427.4158630371095	110.6586608886719	18.08828163146973	488.2676086425782	92.20750427246095	26.7943344116211	429.7232360839845	142.4278717041016	-46.84628677368165	522.4963378906251	107.249755859375	-25.78759574890137	453.4620666503907	166.2462158203125	-94.11809539794923	457.0832519531251	153.614730834961	-128.2486877441407	510.0976867675782	164.691879272461	-129.002685546875	531.2025146484376	87.82241821289064	-73.91114044189455	451.7837829589845	134.9268798828125	-187.350570678711	510.4154663085939	138.3763122558594	-193.1928710937501	555.8812866210939	88.14529418945314	-150.435531616211	506.5821228027345	147.5810089111328	-247.7716674804688	258.9357299804688	870.9717407226565	270.4090881347657	272.7079467773438	836.8835449218752	222.0039520263672	271.5527954101563	787.968200683594	286.6545104980469	298.0439453125001	756.4548339843751	242.1808624267579	310.0165100097657	528.1375732421876	653.9740600585939	303.2885742187501	477.9383850097657	638.2102050781251	311.0305786132813	483.6982727050782	686.5458984375001	321.4439086914063	430.5466918945314	666.6546630859376	376.8683776855469	457.324676513672	811.503845214844	357.1503906250001	446.5592041015626	853.9314575195315	414.315643310547	446.6848754882814	839.5044555664065	424.7680969238282	234.3030548095704	780.6339111328127	326.6594543457032	255.8571014404297	841.9783325195315	
3	0.008333333333333333	482.7898559570314	1219.406494140625	258.7097473144532	369.4497985839844	1220.159301757813	248.4714508056641	552.2229003906251	1143.420776367188	74.03969573974611	325.8584594726563	1125.813354492188	60.08744049072267	620.9606933593751	858.8904418945315	95.39768218994142	601.6068115234376	863.7640380859377	37.36317825317384	606.5661010742189	786.8880004882815	52.80833435058595	577.5642700195314	790.1345825195315	1.806012630462647	546.4800415039064	342.3940429687501	27.83948135375977	552.8121948242189	339.8275451660157	-33.59378051757813	540.3252563476564	290.6504821777344	0.8926238417625429	533.9744873046876	289.8360900878907	-58.79298019409181	467.9541015625001	132.1656341552735	18.80121231079102	428.0778808593751	107.8651275634766	-0.8309884667396548	488.9328918457032	89.38766479492189	6.91567373275757	429.7233276367189	140.7198791503907	-65.2847137451172	522.6754760742189	105.3531036376953	-45.70092773437501	453.2023010253907	165.0840454101563	-112.6509170532227	456.274139404297	153.2896270751953	-146.8742370605469	509.3281555175782	164.5175018310547	-147.7998809814453	530.8994750976564	86.6619110107422	-94.25868988037111	450.3560180664064	135.5118255615235	-206.1360626220704	508.8877563476564	139.0943298339844	-212.4845886230469	555.0291748046876	88.45677185058595	-170.886215209961	504.626922607422	149.5286407470703	-266.7363891601563	258.8487243652344	868.3526000976565	254.2810821533204	272.8358764648438	834.6480102539065	205.5816040039063	271.5352478027344	784.8953247070315	270.0383911132813	298.2415161132813	754.4611816406251	224.619369506836	309.8155212402344	533.0729980468751	639.8053588867189	302.6341552734376	482.4746704101564	625.6572875976564	310.6101989746094	488.9744262695314	674.4325561523439	320.3563842773438	435.7763977050782	655.3450927734376	376.1986999511719	466.3387756347657	798.8787841796877	356.9267272949219	456.7416992187501	841.9260864257815	413.9732360839845	456.6158142089845	826.9487304687502	424.2352294921876	242.7819213867188	773.851501464844	326.6025085449219	265.9554138183594	835.4592895507815	
4	0.0125	483.1542358398439	1216.970092773438	244.9670410156251	369.6915588378907	1218.428833007813	234.6588745117188	551.7584838867189	1141.10205078125	60.71556472778322	325.3210144042969	1125.235229492188	45.88651657104493	621.2707519531251	856.2131958007815	83.90249633789064	601.9769897460939	860.743347167969	25.77351760864259	606.5842285156251	783.935729980469	41.90057754516602	577.7459106445314	786.8686523437502	-9.247404098510744	545.9546508789064	339.7644042968751	12.25836372375489	552.4891967773439	337.8932189941407	-49.18308639526369	539.9666137695314	288.2799682617188	-15.32205677032471	533.7623291015626	288.2053222656251	-75.01998138427736	468.8876342773439	129.2264099121094	0.7204849123954774	428.9780273437501	105.0321426391602	-18.75935554504395	489.9237060546876	86.75164794921876	-11.93820571899414	429.7121887207032	138.7946319580078	-82.71003723144533	522.9589233398439	103.5265426635742	-64.71985626220705	452.5160522460939	164.2374572753907	-129.4749298095703	455.2540893554689	152.5822296142578	-164.4017028808594	508.2190246582032	163.9136962890625	-165.876205444336	530.7250366210939	85.49846649169923	-113.5956039428711	449.0671386718751	135.498275756836	-223.8245849609376	507.2835388183595	139.5977783203125	-230.7525177001954	553.8932495117189	88.43136596679689	-190.4545593261719	502.2052001953126	150.9261016845703	-284.7403259277344	258.8635559082032	865.4495849609377	238.1912689208985	272.7991638183594	832.2591552734377	189.1789703369141	271.1478576660157	782.1541748046877	253.1804962158204	297.9129943847657	751.7329711914064	207.8477020263672	309.5989379882813	537.7440185546876	625.2698364257814	302.0310974121094	486.368377685547	612.3757324218751	310.1136169433594	494.6538085937501	661.1680297851564	319.6310424804688	440.8020629882814	643.5618286132814	375.7501525878907	475.3682556152345	785.7802734375002	356.9271545410157	467.0769042968751	829.3066406250002	413.8038940429689	466.4707946777345	813.8306274414065	423.5133361816407	251.3280029296876	766.2490234375001	326.5374145507813	276.1661376953126	828.4501953125002	
5	0.01666666666666667	483.5368957519532	1214.268920898438	231.3887176513672	370.1129760742188	1216.02783203125	220.7257232666016	551.5488891601564	1138.644653320313	47.0774269104004	324.6816711425782	1124.281616210938	32.02412414550782	621.3110961914064	853.6143188476565	72.28840637207033	602.5009765625001	857.822448730469	14.03468608856202	606.5200805664064	781.126159667969	30.72275161743165	578.1373291015626	783.809265136719	-20.67084503173828	545.2478027343751	337.1864013671876	-2.696621894836426	552.0934448242189	335.9249877929688	-64.10949707031251	539.5241699218751	285.8740539550782	-30.85456275939942	533.5560302734376	286.4716491699219	-90.56531524658205	469.8997497558595	126.3810577392578	-16.37618446350098	429.6836242675782	102.2537155151367	-35.62102127075196	491.0633544921876	84.29025268554689	-29.75426292419434	429.8648986816407	136.6314239501953	-99.15741729736331	523.3277587890626	101.7351913452149	-82.80258941650392	452.6253662109376	162.0662384033203	-146.65234375	454.1897583007814	151.5339813232422	-181.0786590576172	506.875213623047	163.3839874267578	-183.4432373046875	530.5992431640626	84.22539520263673	-131.9525604248047	447.2663879394532	135.0233154296875	-240.4959716796876	505.255096435547	139.4236145019532	-248.1635742187501	552.6384277343751	88.09946441650392	-209.0471191406251	499.4504699707032	151.6773681640625	-301.7963256835938	258.5806884765626	862.7143554687502	222.1446990966797	272.5818176269532	829.8704223632815	172.8575744628907	270.9577331542969	779.2524414062502	236.085189819336	297.3769531250001	749.1188964843751	190.7668609619141	309.3344726562501	542.2233886718751	610.2384033203126	301.3565673828126	490.5158081054689	598.9275512695314	309.4512329101563	500.5610351562501	647.4325561523439	318.6702575683594	445.8854064941407	631.2031250000001	375.3976440429688	484.4598083496095	772.2723388671877	356.8854980468751	477.2637329101564	816.0427246093752	414.1841735839845	476.1325073242189	800.170593261719	422.6539611816407	259.8190612792969	758.4891357421876	326.2569274902344	286.6227111816407	820.819274902344	
